<?xml version="1.0" standalone="no"?>
<!DOCTYPE svg PUBLIC "-//W3C//DTD SVG 20010904//EN"
 "http://www.w3.org/TR/2001/REC-SVG-20010904/DTD/svg10.dtd">
<svg version="1.0" xmlns="http://www.w3.org/2000/svg"
 width="300.000000pt" height="300.000000pt" viewBox="0 0 300.000000 300.000000"
 preserveAspectRatio="xMidYMid meet">
<metadata>
Created by potrace 1.10, written by Peter Selinger 2001-2011
</metadata>
<g transform="translate(0.000000,300.000000) scale(0.100000,-0.100000)"
fill="#000000" stroke="none">
<path d="M1631 2868 c-61 -31 -86 -81 -85 -169 0 -113 51 -164 161 -164 56 0
90 18 127 69 15 20 21 46 24 99 5 115 -37 172 -133 183 -40 4 -59 1 -94 -18z
m109 -68 c16 -16 20 -33 20 -80 0 -97 -33 -140 -84 -107 -27 18 -38 63 -30
121 12 80 52 108 94 66z m79 -86 c1 -22 -5 -48 -11 -57 -11 -14 -12 -4 -9 60
3 81 19 79 20 -3z m-214 -1 c0 -32 4 -69 8 -83 8 -24 7 -24 -7 -6 -21 26 -22
146 -2 146 1 0 1 -26 1 -57z"/>
<path d="M1995 2859 c-29 -17 -45 -40 -45 -65 0 -17 -4 -21 -20 -17 -15 4 -20
0 -20 -15 0 -11 -3 -27 -6 -36 -4 -12 0 -16 15 -16 25 0 25 7 5 -99 -16 -85
-34 -121 -61 -121 -7 0 -13 -4 -13 -10 0 -8 19 -57 26 -68 2 -2 18 1 37 7 56
19 76 49 93 142 24 135 22 131 44 124 15 -5 22 0 30 20 15 38 13 42 -20 49
-17 3 -30 12 -30 20 0 21 19 30 35 16 10 -9 20 -7 40 6 l26 17 -23 24 c-28 27
-84 38 -113 22z m9 -164 l-17 -27 -13 24 c-18 32 -17 58 3 80 16 18 17 18 31
-16 12 -31 12 -37 -4 -61z"/>
<path d="M1183 2846 c-65 -30 -87 -114 -42 -162 12 -13 46 -31 76 -39 58 -17
75 -37 50 -62 -14 -14 -20 -14 -61 -1 l-46 15 -10 -35 c-11 -42 -5 -48 57 -58
82 -12 144 20 164 85 18 59 -6 104 -67 126 -86 30 -94 34 -94 49 0 21 30 28
70 16 18 -5 34 -9 35 -7 12 16 22 68 14 73 -23 14 -115 14 -146 0z m36 -154
c-20 -8 -59 29 -59 55 0 26 0 26 34 -13 19 -21 30 -41 25 -42z m95 -31 c10
-11 16 -28 14 -39 -2 -16 -8 -13 -30 19 -29 41 -17 56 16 20z"/>
<path d="M1488 2854 c-5 -4 -8 -29 -8 -57 0 -136 -81 -340 -271 -682 -91 -164
-90 -155 -21 -155 32 0 82 -7 111 -16 51 -15 54 -15 67 5 8 11 37 34 64 52 48
31 62 49 38 49 -6 0 -34 -17 -62 -38 -28 -21 -60 -37 -71 -37 -11 1 -38 2 -60
4 -22 1 -49 8 -60 17 -20 15 -19 16 15 82 19 37 45 83 58 102 40 60 123 230
162 333 39 103 48 108 68 37 22 -78 133 -310 168 -351 8 -8 14 -19 14 -23 0
-4 18 -37 40 -73 22 -37 40 -78 40 -92 0 -13 -3 -21 -7 -18 -3 4 -11 3 -18 -3
-29 -24 -155 -15 -155 12 0 4 -7 8 -15 8 -7 0 -18 6 -22 14 -8 12 -45 36 -57
36 -19 0 1 -22 43 -49 27 -18 56 -43 65 -56 15 -23 17 -24 57 -10 23 9 72 18
110 21 l68 7 -31 61 c-17 33 -59 111 -93 171 -149 263 -210 422 -224 583 -3
41 -9 70 -13 66z"/>
<path d="M2193 2808 c-13 -6 -28 -26 -35 -44 -6 -18 -17 -30 -24 -27 -14 5
-19 -2 -28 -39 -5 -24 -3 -28 15 -28 16 0 20 -4 14 -17 -3 -10 -16 -53 -28
-97 -19 -71 -24 -80 -53 -92 -31 -13 -32 -15 -21 -49 12 -40 30 -44 82 -19 39
18 58 53 86 162 20 77 23 83 44 78 17 -4 25 0 33 20 17 36 15 42 -18 49 -17 4
-30 13 -30 21 0 19 30 30 39 15 6 -9 14 -9 34 0 36 16 34 35 -5 59 -36 22 -71
24 -105 8z m19 -106 c10 -18 8 -26 -10 -45 -12 -13 -22 -31 -22 -40 0 -9 -5
-17 -10 -17 -6 0 -8 10 -5 23 4 12 2 35 -4 49 -8 23 -6 31 12 52 13 15 23 20
25 13 2 -7 8 -22 14 -35z"/>
<path d="M948 2793 l-38 -15 0 -127 -1 -126 -32 35 c-17 19 -57 63 -87 96
l-55 62 -36 -17 -36 -16 50 -166 49 -166 43 16 43 15 -25 64 c-27 74 -53 117
-53 90 0 -20 -16 -33 -18 -15 0 7 -9 38 -18 70 -10 31 -14 60 -10 64 4 5 25
-12 47 -36 29 -31 37 -47 29 -56 -10 -12 10 -45 78 -124 28 -33 30 -33 65 -22
l37 13 0 89 c0 72 -3 89 -15 89 -12 0 -15 13 -15 59 0 70 13 84 35 40 27 -51
48 -116 33 -101 -35 35 -34 2 3 -99 l21 -57 41 16 c53 20 52 19 40 34 -5 7
-38 79 -73 161 -34 81 -63 147 -64 146 0 0 -18 -7 -38 -16z m-8 -288 c0 -28
-27 -45 -40 -25 -5 9 0 20 13 31 28 23 27 24 27 -6z"/>
<path d="M2333 2660 c-51 -21 -56 -84 -12 -135 41 -46 27 -69 -18 -31 l-30 25
-23 -24 c-27 -29 -19 -45 41 -76 54 -27 85 -24 120 10 41 41 37 74 -18 132
-31 33 -15 46 22 17 l27 -21 25 26 26 25 -39 26 c-45 30 -90 39 -121 26z m32
-56 c-11 -8 -19 -23 -17 -32 2 -15 1 -15 -9 1 -15 25 -4 47 23 47 23 -1 23 -1
3 -16z"/>
<path d="M471 2579 c-64 -13 -117 -69 -128 -132 -12 -76 62 -196 133 -216 65
-18 152 25 187 92 25 48 17 107 -23 170 -44 70 -103 100 -169 86z m106 -71
c28 -31 59 -96 49 -106 -3 -2 -12 11 -21 30 -10 18 -33 50 -53 71 -23 24 -31
37 -21 37 8 0 29 -15 46 -32z m-46 -38 c43 -46 69 -112 52 -138 -16 -27 -61
-27 -90 0 -32 29 -72 113 -66 137 4 17 35 39 57 40 5 1 26 -17 47 -39z m-63
-174 l27 -29 -35 19 c-40 23 -66 63 -75 119 -7 39 -7 39 24 -20 17 -32 44 -73
59 -89z"/>
<path d="M2522 2535 c-38 -32 -62 -83 -62 -130 0 -28 7 -44 29 -64 44 -41 141
-66 141 -37 0 8 3 21 6 30 4 11 -4 17 -31 22 -35 6 -65 27 -65 44 0 6 11 5 26
0 83 -32 159 19 140 95 -16 62 -129 86 -184 40z m38 -34 c0 -6 -4 -13 -10 -16
-5 -3 -10 -13 -10 -21 0 -8 5 -12 10 -9 16 10 12 -5 -10 -32 -11 -14 -20 -33
-20 -42 -1 -11 -5 -8 -15 9 -16 28 -11 52 17 93 19 27 38 36 38 18z m67 -18
c6 -18 -37 -37 -51 -23 -8 8 -6 15 9 26 21 15 37 14 42 -3z"/>
<path d="M2812 2480 c-10 -17 -16 -19 -33 -9 -17 8 -23 7 -35 -8 -16 -21 -18
-43 -4 -43 17 0 11 -19 -24 -73 -54 -82 -52 -107 11 -147 26 -17 51 -30 55
-30 5 0 13 12 19 27 9 23 7 30 -13 45 -23 17 -23 17 -5 50 35 64 43 71 66 57
17 -11 23 -10 40 5 27 25 26 34 -4 48 l-24 11 20 28 20 28 -37 16 c-20 8 -37
15 -38 15 -1 0 -7 -9 -14 -20z m30 -60 c4 -24 0 -31 -21 -40 -32 -13 -80 -80
-83 -113 -1 -14 -6 -23 -10 -21 -16 10 -7 53 17 82 13 16 22 32 18 35 -3 4 0
13 7 22 7 8 10 21 7 29 -4 10 4 18 21 25 39 14 39 14 44 -19z"/>
<path d="M2913 2458 c-21 -28 -22 -36 -4 -53 17 -14 19 -14 17 -1 -1 8 -5 19
-9 22 -4 4 -2 13 5 21 6 7 9 16 6 18 -3 3 -10 0 -15 -7z"/>
<path d="M1249 2313 c-42 -65 -89 -142 -104 -171 -16 -29 -33 -56 -39 -61 -6
-5 -67 -12 -136 -15 -123 -6 -195 -15 -187 -22 2 -2 81 -5 176 -6 l173 -3 14
33 c7 19 45 91 84 162 64 117 105 200 97 200 -1 0 -37 -53 -78 -117z"/>
<path d="M1670 2393 c0 -5 30 -62 66 -128 36 -66 79 -146 95 -177 l29 -58 196
0 c108 1 195 3 192 5 -12 12 -182 35 -260 35 -47 0 -94 3 -103 6 -9 4 -30 34
-47 68 -30 60 -155 256 -164 256 -2 0 -4 -3 -4 -7z"/>
<path d="M330 2085 c0 -2 19 -17 43 -32 108 -68 234 -217 373 -439 47 -76 95
-152 106 -167 l20 -28 29 27 c22 21 29 37 29 64 0 42 44 118 88 150 27 20 30
28 35 103 4 70 24 153 52 220 7 16 -10 17 -267 17 -301 0 -339 5 -448 60 -33
17 -60 28 -60 25z m713 -155 c-1 -14 -5 -63 -9 -110 -7 -86 -18 -119 -51 -155
-38 -41 -62 -82 -68 -120 -16 -84 -39 -77 -102 29 -85 145 -147 237 -204 306
-25 30 -49 61 -53 68 -6 10 43 12 241 10 l248 -3 -2 -25z"/>
<path d="M2585 2042 l-80 -37 -317 -3 -318 -3 16 -37 c30 -71 44 -127 50 -202
6 -74 8 -76 50 -113 51 -44 59 -36 13 11 -29 29 -31 38 -34 110 -2 44 -7 88
-13 98 -5 11 -12 35 -13 54 l-4 35 253 1 252 1 -16 -26 c-10 -14 -23 -30 -31
-34 -7 -4 -13 -12 -13 -16 0 -5 -13 -23 -30 -41 -16 -17 -77 -103 -136 -191
-87 -129 -111 -159 -130 -159 -16 0 -28 10 -39 30 -9 17 -20 30 -25 30 -5 0
-7 6 -4 14 3 8 1 17 -5 21 -6 3 -11 -1 -11 -9 0 -9 -4 -16 -10 -16 -14 0 -13
13 2 28 10 10 5 19 -20 44 l-32 33 0 -30 c0 -17 -3 -39 -6 -50 -4 -15 3 -25
23 -37 15 -9 55 -41 89 -72 l61 -55 113 167 c62 92 132 192 155 222 60 78 191
200 255 238 72 41 55 39 -45 -6z"/>
<path d="M1432 1973 c-27 -21 -51 -42 -53 -46 -2 -4 22 -21 55 -36 l59 -29 45
29 c25 16 52 29 60 29 7 0 12 5 10 12 -5 15 -96 78 -113 78 -7 0 -35 -17 -63
-37z m106 -9 c15 -15 14 -18 -8 -36 -31 -25 -85 -21 -85 7 0 19 36 45 63 45 7
0 21 -7 30 -16z"/>
<path d="M1760 1940 c-36 -3 -75 -10 -87 -14 l-22 -7 29 -41 c17 -23 30 -46
30 -53 0 -18 31 -42 63 -50 15 -4 55 -25 88 -47 l61 -39 -7 63 c-4 35 -17 92
-29 128 -24 73 -21 72 -126 60z m60 -25 c17 -5 60 -108 60 -142 0 -18 -25 -16
-44 2 -8 8 -22 15 -30 15 -9 0 -16 4 -16 8 0 5 -11 14 -26 20 -24 11 -60 75
-50 90 6 9 83 14 106 7z"/>
<path d="M1095 1878 c-31 -109 -36 -211 -9 -167 4 7 42 28 85 48 71 33 82 42
118 98 l40 62 -50 10 c-28 6 -76 11 -108 11 l-58 0 -18 -62z m134 26 c37 -8
39 -24 9 -58 -30 -32 -120 -78 -131 -67 -11 11 7 78 28 109 17 23 39 27 94 16z"/>
<path d="M1315 1857 c-19 -28 -33 -53 -30 -55 2 -2 25 3 52 12 26 8 67 18 91
22 23 4 42 10 42 14 0 4 -27 18 -60 33 l-60 26 -35 -52z"/>
<path d="M1555 1875 l-60 -34 37 -1 c20 0 65 -9 99 -20 35 -10 65 -17 67 -15
8 7 -59 105 -72 105 -6 0 -38 -16 -71 -35z"/>
<path d="M1438 1801 c-64 -21 -176 -102 -212 -154 -104 -154 -81 -365 54 -491
72 -67 126 -89 209 -84 120 7 222 80 291 208 33 61 35 71 34 155 -1 107 -24
179 -81 245 -40 46 -120 103 -134 94 -5 -3 -19 2 -31 10 -29 19 -95 28 -130
17z m94 -52 c22 -12 31 -11 23 1 -4 6 17 -3 45 -20 28 -16 55 -30 60 -30 5 0
14 -16 21 -35 7 -19 16 -35 21 -35 4 0 5 -8 2 -17 -5 -14 -4 -15 4 -4 34 47
76 -64 70 -182 -7 -122 -52 -198 -164 -272 -42 -28 -65 -36 -122 -41 -82 -8
-130 10 -196 73 -118 112 -128 336 -22 459 37 43 59 43 25 1 -30 -39 -41 -85
-29 -126 6 -24 6 -48 -1 -74 -6 -21 -11 -63 -12 -93 -3 -85 36 -113 163 -119
89 -4 108 4 176 70 69 66 80 64 35 -7 -58 -91 -181 -141 -238 -95 -9 6 -13 6
-13 -1 0 -13 55 -32 93 -32 46 0 112 37 152 83 57 66 108 258 68 250 -7 -2
-15 6 -18 17 -4 11 -11 20 -16 20 -21 0 -25 2 -36 23 -10 19 -12 19 -13 4 0
-26 -24 -31 -58 -13 -17 9 -38 13 -47 10 -9 -4 -15 -3 -14 2 4 24 -2 131 -9
141 -4 6 -21 14 -37 17 -29 6 -29 6 -5 -4 35 -16 40 -28 39 -98 -2 -78 -17
-69 -21 13 -3 54 -5 60 -23 57 -11 -2 -28 -12 -38 -23 -21 -23 -31 -25 -24 -5
4 10 1 13 -9 9 -17 -6 -9 22 14 50 8 9 11 17 7 17 -5 0 -1 6 9 13 20 15 107
12 138 -4z m-130 -121 c0 -7 2 -19 2 -27 1 -8 33 -35 71 -60 67 -45 70 -48 73
-90 2 -24 -2 -49 -7 -54 -16 -16 -13 -27 4 -21 9 4 15 0 15 -10 0 -9 -6 -16
-13 -16 -7 0 -18 -9 -25 -20 -13 -21 -89 -63 -133 -73 -30 -8 -55 13 -46 37 3
7 -1 26 -9 42 -14 26 -14 29 8 46 19 15 20 18 6 18 -10 0 -18 -4 -18 -9 0 -5
-9 -7 -21 -4 -22 6 -21 11 2 70 11 26 11 36 0 56 -15 29 -7 83 17 110 17 20
71 23 74 5z m256 -130 c17 -17 15 -78 -5 -100 -34 -38 -83 -8 -83 52 0 43 14
60 50 60 14 0 31 -5 38 -12z m-88 -173 c-22 -36 -85 -76 -117 -74 -11 0 -6 5
12 11 47 16 91 54 105 89 8 18 16 27 18 21 2 -7 -6 -28 -18 -47z m-265 8 c19
-45 19 -47 6 -51 -13 -4 -44 56 -37 74 8 22 14 17 31 -23z"/>
<path d="M1505 1730 c-15 -7 -16 -9 -4 -9 9 -1 29 -11 45 -23 18 -14 24 -16
15 -5 -15 19 -2 24 16 6 8 -8 13 -8 18 0 3 7 1 10 -6 9 -7 -2 -13 2 -14 9 0 6
-4 15 -9 20 -5 5 -6 3 -2 -4 8 -15 -10 -18 -19 -3 -7 12 -13 12 -40 0z"/>
<path d="M1584 1643 c1 -27 6 -37 19 -39 13 -2 17 2 13 13 -3 8 -6 20 -7 26
-1 7 -5 1 -10 -13 -8 -23 -8 -22 -5 8 1 18 0 35 -4 37 -4 2 -7 -12 -6 -32z"/>
<path d="M1701 1361 c-28 -111 -119 -196 -224 -210 -49 -7 -50 -7 -20 -15 35
-8 102 7 142 32 63 39 118 125 128 202 8 56 -11 50 -26 -9z"/>
<path d="M1350 1501 c-15 -29 -13 -34 16 -27 17 5 23 3 19 -4 -9 -15 18 -12
40 3 17 13 17 15 -6 30 -31 22 -56 21 -69 -2z"/>
<path d="M1413 1408 c-15 -7 -23 -20 -23 -35 0 -13 -4 -22 -8 -19 -4 2 -14 1
-22 -5 -12 -7 -10 -9 7 -9 12 0 27 -9 33 -19 8 -16 6 -23 -12 -35 -30 -21 -13
-20 22 1 21 12 28 24 28 45 -1 15 6 36 14 46 29 33 30 42 6 41 -13 0 -33 -5
-45 -11z"/>
<path d="M1597 1473 c-13 -13 -7 -51 10 -57 23 -9 47 17 38 43 -6 20 -34 28
-48 14z"/>
<path d="M2272 1598 c-109 -161 -129 -196 -119 -209 26 -36 188 -255 202 -273
8 -11 17 -17 20 -14 3 3 0 12 -7 20 -7 7 -24 36 -38 63 -14 27 -40 71 -57 97
-18 26 -33 50 -33 54 0 3 -9 17 -20 31 -11 14 -20 32 -20 39 0 13 76 144 89
154 4 3 13 19 20 37 7 18 33 67 57 109 24 43 42 79 40 81 -2 3 -63 -82 -134
-189z"/>
<path d="M1195 1745 c-28 -12 -68 -33 -91 -47 -38 -24 -40 -28 -36 -67 2 -23
7 -40 11 -38 3 1 27 13 52 25 32 15 51 32 60 53 7 18 24 45 37 61 13 16 23 30
21 32 -2 2 -27 -6 -54 -19z"/>
<path d="M1772 1725 c41 -57 118 -145 128 -145 4 0 10 19 14 42 8 49 2 56
-107 114 l-68 36 33 -47z"/>
<path d="M620 1724 c0 -10 6 -30 14 -44 27 -51 64 -117 109 -195 26 -44 47
-84 47 -89 0 -9 -27 -55 -96 -161 -129 -201 -104 -191 48 19 81 111 99 142 91
155 -6 9 -54 86 -108 171 -112 178 -105 169 -105 144z"/>
<path d="M1005 1619 c-34 -38 -65 -94 -65 -119 0 -6 26 10 57 35 53 43 57 50
54 84 -1 20 -4 37 -6 39 -1 1 -19 -16 -40 -39z"/>
<path d="M1117 1593 c-40 -25 -41 -30 -20 -108 10 -36 -14 -2 -27 38 -8 24
-16 35 -22 29 -5 -5 -1 -29 12 -63 26 -65 40 -82 40 -48 1 13 14 58 30 98 16
41 28 76 27 77 -1 1 -19 -9 -40 -23z"/>
<path d="M1830 1620 c0 -3 7 -30 15 -60 8 -30 15 -72 15 -92 0 -72 33 -43 46
40 5 34 2 41 -35 77 -23 21 -41 37 -41 35z"/>
<path d="M1930 1515 c0 -14 -9 -48 -19 -76 -20 -51 -20 -51 2 -120 12 -38 24
-69 27 -69 3 0 39 34 80 76 l75 75 -73 70 c-41 38 -78 69 -83 69 -5 0 -9 -11
-9 -25z m65 -51 c9 -9 23 -27 32 -40 14 -22 13 -26 -7 -59 -51 -82 -97 -63
-85 35 10 77 27 96 60 64z"/>
<path d="M963 1478 c-27 -29 -116 -143 -197 -252 -163 -218 -236 -296 -359
-382 -45 -31 -73 -53 -62 -49 135 53 105 50 458 47 l328 -2 -7 22 c-3 13 -12
34 -19 48 -22 43 -55 161 -55 194 0 24 -8 38 -30 54 -16 12 -46 46 -65 75 -19
28 -35 48 -35 43 0 -13 43 -89 63 -111 10 -11 20 -31 24 -45 3 -14 14 -56 25
-95 10 -38 22 -85 27 -103 6 -20 5 -34 -1 -38 -11 -7 -500 5 -507 11 -2 2 29
39 68 82 39 43 113 136 164 208 90 127 121 155 130 118 4 -16 5 -15 6 2 0 11
-6 31 -15 43 -29 42 -7 34 56 -20 105 -89 95 -89 109 1 11 68 11 82 -2 102 -8
13 -20 41 -27 62 -6 20 -15 37 -19 37 -5 0 -30 -24 -58 -52z m66 -39 c19 -54
10 -129 -14 -129 -8 0 -30 16 -51 35 l-36 35 17 27 c19 28 55 62 67 63 3 0 11
-14 17 -31z"/>
<path d="M1095 1344 c-4 -21 -11 -54 -15 -72 -8 -31 -7 -34 50 -72 32 -22 62
-44 65 -50 3 -5 11 -10 16 -10 5 0 -2 21 -17 46 -15 25 -41 79 -60 121 l-33
76 -6 -39z"/>
<path d="M2078 1348 c-9 -18 -21 -49 -27 -69 -13 -41 -73 -115 -100 -124 -15
-4 -19 -19 -23 -73 -3 -45 -17 -96 -41 -155 l-35 -87 336 3 337 2 69 -32 c37
-18 71 -33 74 -33 3 0 -32 26 -78 58 -127 86 -178 139 -333 347 -78 104 -147
191 -153 192 -6 2 -18 -11 -26 -29z m97 -116 c33 -45 79 -108 103 -141 24 -33
71 -91 105 -128 l61 -68 -109 -6 c-184 -11 -403 -10 -410 1 -4 6 -1 25 5 44
12 38 17 60 30 134 10 60 11 62 61 122 21 25 45 64 54 88 10 24 23 41 29 39 6
-2 38 -40 71 -85z"/>
<path d="M1846 1312 c-16 -31 -48 -85 -72 -119 l-45 -63 69 38 c122 66 116 58
102 130 -7 34 -16 64 -20 67 -3 2 -19 -22 -34 -53z"/>
<path d="M2023 1302 c-11 -15 -37 -39 -57 -52 -29 -20 -36 -31 -36 -59 l0 -34
33 25 c17 14 45 51 61 82 32 61 31 82 -1 38z"/>
<path d="M940 1307 c0 -18 52 -96 84 -126 l26 -24 -1 39 c0 35 -6 43 -55 82
-30 24 -54 36 -54 29z"/>
<path d="M1070 1186 c0 -32 4 -38 36 -51 39 -16 125 -39 184 -49 l35 -6 -29
25 c-17 13 -33 22 -38 19 -4 -3 -14 -2 -20 2 -7 5 -20 9 -28 9 -9 1 -44 20
-78 44 l-62 42 0 -35z"/>
<path d="M1825 1164 c-44 -24 -97 -49 -117 -56 -21 -6 -38 -14 -38 -18 0 -11
169 29 210 50 31 16 37 23 33 45 -3 14 -6 25 -7 24 0 0 -37 -21 -81 -45z"/>
<path d="M1075 1093 c8 -44 41 -152 54 -172 6 -10 31 -12 99 -10 50 2 93 7 96
10 4 3 -9 32 -29 64 -19 33 -35 64 -35 71 0 6 -30 19 -66 28 -37 9 -80 24 -96
32 l-29 15 6 -38z m105 -37 c0 3 14 -3 31 -13 29 -17 66 -80 54 -91 -3 -3 -24
-7 -46 -9 -48 -5 -73 12 -90 64 -15 47 -7 65 26 53 14 -5 25 -7 25 -4z"/>
<path d="M1855 1110 c-22 -10 -61 -22 -87 -25 -43 -6 -48 -10 -59 -43 -6 -21
-22 -54 -36 -75 -13 -22 -22 -42 -18 -45 4 -4 50 -7 103 -7 l96 0 23 59 c26
63 42 157 27 155 -5 0 -27 -9 -49 -19z m10 -69 c-3 -14 -14 -39 -24 -56 -15
-27 -23 -30 -69 -32 -29 -2 -52 2 -52 7 0 6 12 10 28 10 23 1 24 2 10 11 -21
12 -23 42 -5 57 20 17 90 39 105 34 9 -3 11 -13 7 -31z"/>
<path d="M1298 1020 c15 -26 34 -57 42 -69 l15 -23 55 22 c93 36 91 41 -30 81
l-108 35 26 -46z"/>
<path d="M1585 1026 l-90 -43 59 -27 c33 -15 65 -25 71 -22 10 4 75 116 75
130 0 13 -29 4 -115 -38z"/>
<path d="M1429 936 l-63 -29 34 -29 c36 -29 50 -35 50 -18 0 6 -7 10 -15 10
-8 0 -15 3 -15 8 0 13 39 42 58 42 14 0 15 -2 2 -10 -11 -7 -8 -10 16 -10 46
0 61 -23 30 -44 -33 -21 -53 -22 -36 -1 7 8 16 13 20 10 5 -3 11 -1 15 5 4 6
-6 10 -24 10 -23 0 -29 -4 -25 -15 4 -8 1 -15 -6 -15 -9 0 -7 -7 5 -20 17 -19
18 -19 54 -1 20 11 48 32 63 48 l27 29 -63 29 -64 30 -63 -29z"/>
<path d="M1320 900 c-14 -4 -58 -8 -99 -9 -60 -1 -72 -4 -67 -16 3 -8 44 -81
92 -161 135 -228 232 -454 235 -545 1 -19 4 -45 8 -59 6 -19 9 -9 13 40 10
117 93 311 251 585 l86 150 -102 7 -102 7 -25 -29 c-14 -15 -45 -42 -69 -59
-24 -17 -37 -31 -29 -31 8 0 39 18 69 39 61 43 108 55 148 38 35 -16 43 -29
27 -47 -40 -46 -227 -404 -241 -463 -4 -15 -13 -27 -19 -27 -13 0 -37 41 -43
74 -6 34 -86 189 -160 311 -76 124 -84 145 -57 145 8 0 12 5 9 10 -10 16 92
12 125 -5 l29 -15 -22 35 c-12 19 -24 34 -27 34 -3 -1 -16 -5 -30 -9z"/>
<path d="M780 806 c0 -13 157 -38 238 -37 88 0 94 -1 121 -27 15 -15 34 -39
42 -54 18 -34 122 -186 150 -218 24 -29 -48 112 -128 248 l-54 92 -185 0
c-101 0 -184 -2 -184 -4z"/>
<path d="M1745 648 c-87 -156 -108 -198 -101 -198 2 0 50 70 107 155 65 98
111 157 124 160 11 2 70 7 130 10 118 7 201 18 212 28 3 4 -81 7 -188 7 l-194
0 -90 -162z"/>
<path d="M1650 198 c0 -169 2 -198 15 -198 8 0 15 7 15 15 0 11 11 15 36 15
19 0 45 5 56 11 16 9 35 8 76 -2 38 -9 62 -10 81 -3 15 6 39 7 56 2 23 -6 36
-3 57 12 34 25 33 25 68 -1 22 -17 36 -20 65 -15 21 4 45 12 55 18 13 8 23 7
41 -5 25 -18 64 -22 73 -8 3 4 23 4 45 -2 29 -8 50 -8 77 1 24 7 43 8 55 2 26
-14 105 -12 117 3 14 17 17 183 4 222 -6 17 -11 25 -11 18 -1 -8 -15 -11 -43
-9 -22 2 -54 -2 -70 -8 -20 -7 -34 -7 -46 0 -18 11 -54 11 -89 0 -18 -6 -22
-3 -25 20 -2 15 -15 36 -30 47 -25 19 -30 19 -54 6 -15 -7 -31 -24 -37 -36
-10 -23 -69 -49 -86 -39 -11 7 -98 8 -156 2 -22 -2 -57 1 -77 6 -28 6 -47 5
-74 -7 -24 -10 -41 -12 -48 -6 -6 5 -34 11 -61 13 l-50 3 -1 38 c-1 21 2 39 6
42 3 2 152 6 331 9 469 8 587 8 599 1 5 -3 11 -21 11 -38 1 -27 3 -25 9 13 4
25 7 46 6 47 -1 1 -226 4 -499 5 l-497 3 0 -197z m675 88 c0 -30 -31 -44 -51
-24 -24 24 -11 50 23 46 20 -2 28 -9 28 -22z m-540 -71 c0 -16 -6 -19 -27 -17
-16 1 -28 -2 -28 -7 0 -5 12 -16 28 -23 19 -9 28 -22 30 -44 4 -41 -16 -56
-70 -52 -35 2 -43 7 -43 23 0 17 6 19 33 17 34 -3 45 14 15 25 -80 28 -62 107
21 101 33 -2 41 -7 41 -23z m149 9 c32 -31 11 -77 -40 -90 -37 -10 -29 -27 10
-21 25 4 36 1 40 -10 10 -25 -3 -33 -54 -33 -58 0 -80 23 -80 83 0 69 80 115
124 71z m76 -1 c0 -15 1 -15 18 0 28 26 52 22 52 -8 0 -18 -7 -28 -26 -35 -24
-9 -26 -14 -22 -60 3 -50 3 -50 -27 -50 l-30 0 0 63 c0 34 -4 69 -8 79 -6 12
-3 18 10 21 31 8 33 7 33 -10z m142 -48 c-4 -54 -2 -65 11 -65 19 0 32 57 23
100 -5 28 -3 30 24 30 30 0 30 0 30 -59 0 -76 -24 -111 -79 -111 -53 0 -61 13
-61 97 l0 73 28 0 28 0 -4 -65z m168 4 c0 -40 5 -65 15 -75 25 -25 17 -35 -22
-32 l-38 3 -3 83 c-3 82 -3 82 23 82 24 0 25 -2 25 -61z m155 36 c0 -16 -6
-19 -27 -17 -22 2 -29 -2 -34 -22 -10 -41 4 -68 34 -64 22 2 28 -2 30 -19 3
-21 -1 -23 -41 -23 -67 0 -99 48 -77 115 14 42 34 56 80 52 28 -1 35 -6 35
-22z m143 13 c16 -16 15 -63 -1 -76 -6 -6 -24 -13 -40 -17 -44 -11 -33 -28 14
-21 38 6 40 5 37 -16 -3 -20 -10 -23 -55 -26 -44 -3 -53 0 -67 20 -25 35 -21
94 9 123 26 27 82 34 103 13z"/>
<path d="M1866 184 c-4 -9 -4 -19 -1 -22 6 -6 35 18 35 29 0 16 -28 10 -34 -7z"/>
<path d="M2546 184 c-4 -9 -4 -19 -1 -22 6 -6 35 18 35 29 0 16 -28 10 -34 -7z"/>
<path d="M690 370 c-382 -3 -663 -7 -625 -9 114 -6 316 -10 540 -11 207 -1
285 -6 285 -19 0 -4 -9 -17 -21 -29 -11 -12 -25 -36 -31 -52 -12 -36 -18 -37
-46 -7 -18 19 -30 22 -74 20 -64 -4 -63 -4 -116 3 -27 4 -48 2 -55 -5 -13 -13
-67 -15 -67 -3 0 4 -96 7 -212 7 l-213 -1 -26 -26 c-24 -24 -27 -33 -25 -98 1
-67 3 -72 32 -90 16 -11 43 -19 59 -19 159 3 209 -1 217 -15 5 -9 18 -16 28
-16 18 0 20 7 20 93 0 50 -4 99 -10 107 -6 9 -5 17 3 22 20 13 37 9 37 -9 0
-15 1 -15 18 0 41 38 92 5 92 -59 0 -40 -34 -84 -66 -84 -20 0 -24 -5 -24 -29
0 -23 -5 -31 -22 -34 -15 -3 -9 -5 14 -6 27 -1 44 6 62 24 25 25 60 33 71 16
4 -8 79 -8 182 -2 23 2 51 42 57 82 3 22 13 42 21 45 8 4 12 10 9 15 -3 5 2 9
10 9 25 0 36 -124 12 -141 -14 -11 4 -49 25 -49 21 0 25 15 7 26 -8 5 -6 10 5
19 19 14 27 137 9 143 -14 4 -16 42 -3 42 5 0 11 10 13 22 4 31 50 53 78 38
25 -13 21 -35 -6 -35 -10 0 -20 -8 -22 -17 -2 -12 2 -15 17 -11 15 4 21 1 21
-12 0 -9 -9 -19 -20 -22 -18 -5 -20 -13 -18 -80 1 -69 0 -77 -23 -94 l-24 -19
39 0 c22 0 36 3 33 7 -21 20 20 28 139 27 95 -2 133 2 149 12 19 12 26 12 51
-1 16 -8 37 -15 47 -15 9 0 17 -7 17 -15 0 -8 9 -15 20 -15 19 0 20 7 20 184
0 102 -3 186 -7 188 -5 2 -321 1 -703 -2z m668 -52 c-2 -17 -11 -23 -38 -26
-19 -2 -41 -9 -48 -14 -7 -6 -32 -11 -55 -10 -23 1 -53 -4 -67 -11 -20 -11
-30 -10 -50 0 -14 7 -36 13 -50 13 -29 1 -84 45 -75 60 4 6 81 10 196 10 190
0 190 0 187 -22z m-18 -68 c0 -11 7 -20 15 -20 8 0 15 -9 15 -20 0 -11 -7 -20
-15 -20 -11 0 -15 -11 -15 -40 0 -33 3 -40 20 -40 14 0 20 -7 20 -21 0 -18 -5
-20 -42 -17 l-43 3 -3 58 c-2 42 -7 57 -17 57 -20 0 -19 29 0 36 8 4 15 12 15
19 0 12 14 19 43 24 4 0 7 -8 7 -19z m-1196 -26 c28 -11 1 -42 -31 -37 -26 3
-26 3 -9 -9 56 -38 68 -65 40 -92 -17 -17 -89 -22 -98 -7 -14 22 6 40 37 35
l32 -5 -25 20 c-14 12 -31 26 -37 31 -45 37 29 88 91 64z m86 -54 c0 -44 4
-60 14 -60 18 0 27 36 19 83 -5 36 -5 37 25 37 l30 0 4 -72 c4 -82 -3 -99 -32
-80 -12 7 -21 8 -25 2 -9 -14 -59 -12 -73 2 -7 7 -12 40 -12 80 0 66 1 68 25
68 24 0 25 -3 25 -60z m411 39 c16 -31 -3 -68 -41 -75 -42 -9 -38 -27 5 -22
36 4 58 -18 33 -34 -22 -13 -86 -9 -102 8 -24 23 -21 99 4 124 28 28 85 27
101 -1z m65 10 c4 -8 9 -8 17 0 6 6 22 11 35 11 18 0 23 -4 18 -16 -3 -9 -6
-19 -6 -24 0 -4 -9 -10 -20 -13 -17 -4 -20 -14 -20 -56 0 -50 -1 -51 -30 -51
-30 0 -31 0 -25 44 3 25 0 57 -5 72 -8 21 -8 29 2 36 18 11 26 10 34 -3z m390
3 c18 -11 22 -144 5 -150 -7 -2 -17 2 -22 9 -6 11 -11 11 -21 1 -6 -6 -21 -12
-32 -12 -57 0 -78 89 -31 135 24 25 76 34 101 17z m148 -1 c12 -19 -5 -38 -30
-33 -32 6 -30 -4 5 -22 37 -20 45 -43 26 -73 -14 -20 -23 -24 -58 -21 -34 2
-42 7 -42 23 0 16 6 19 28 17 35 -4 34 9 -3 30 -32 18 -37 37 -20 69 8 14 21
19 50 19 21 0 41 -4 44 -9z"/>
<path d="M1027 183 c-10 -10 -8 -71 2 -78 13 -7 31 27 31 59 0 24 -18 35 -33
19z"/>
<path d="M417 184 c-11 -11 -8 -84 3 -84 14 0 32 38 28 62 -3 22 -19 33 -31
22z"/>
</g>
</svg>
